HIERARCHY
ROOT Hips
{
	OFFSET 56.877701 -32.693596 43.373703
	CHANNELS 6 Xposition Yposition Zposition Zrotation Xrotation Yrotation
	JOINT Chest
	{
		OFFSET -0.779999 1.005800 5.403099
		CHANNELS 6 Xposition Yposition Zposition Zrotation Xrotation Yrotation
		JOINT Chest2
		{
			OFFSET 0.000000 0.000000 4.236801
			CHANNELS 6 Xposition Yposition Zposition Zrotation Xrotation Yrotation
			JOINT Neck
			{
				OFFSET 0.000000 0.000000 9.874401
				CHANNELS 6 Xposition Yposition Zposition Zrotation Xrotation Yrotation
				JOINT Head
				{
					OFFSET 0.000000 0.000002 2.173893
					CHANNELS 6 Xposition Yposition Zposition Zrotation Xrotation Yrotation
					End Site
					{
						OFFSET 0.000000 0.000000 6.508102
					}
				}
			}
			JOINT LeftCollar
			{
				OFFSET 2.681599 -0.377600 5.432499
				CHANNELS 6 Xposition Yposition Zposition Zrotation Xrotation Yrotation
				JOINT LeftShoulder
				{
					OFFSET 5.161499 0.000000 0.000000
					CHANNELS 6 Xposition Yposition Zposition Zrotation Xrotation Yrotation
					JOINT LeftElbow
					{
						OFFSET 0.000000 0.000000 -10.869099
						CHANNELS 6 Xposition Yposition Zposition Zrotation Xrotation Yrotation
						JOINT LeftWrist
						{
							OFFSET 0.000000 0.000000 -13.344799
							CHANNELS 6 Xposition Yposition Zposition Zrotation Xrotation Yrotation
							End Site
							{
								OFFSET 0.000000 0.000000 -2.173901
							}
						}
					}
				}
			}
			JOINT RightCollar
			{
				OFFSET -2.381901 -1.419600 6.136600
				CHANNELS 6 Xposition Yposition Zposition Zrotation Xrotation Yrotation
				JOINT RightShoulder
				{
					OFFSET -4.550499 0.000000 0.000000
					CHANNELS 6 Xposition Yposition Zposition Zrotation Xrotation Yrotation
					JOINT RightElbow
					{
						OFFSET 0.000000 0.000000 -11.106499
						CHANNELS 6 Xposition Yposition Zposition Zrotation Xrotation Yrotation
						JOINT RightWrist
						{
							OFFSET 0.000000 0.000000 -12.874298
							CHANNELS 6 Xposition Yposition Zposition Zrotation Xrotation Yrotation
							End Site
							{
								OFFSET 0.000000 0.000000 -2.173901
							}
						}
					}
				}
			}
		}
	}
	JOINT LeftHip
	{
		OFFSET 2.431900 0.469601 -2.489399
		CHANNELS 6 Xposition Yposition Zposition Zrotation Xrotation Yrotation
		JOINT LeftKnee
		{
			OFFSET 0.000000 -0.000004 -18.200201
			CHANNELS 6 Xposition Yposition Zposition Zrotation Xrotation Yrotation
			JOINT LeftAnkle
			{
				OFFSET 0.000000 0.000000 -16.279900
				CHANNELS 6 Xposition Yposition Zposition Zrotation Xrotation Yrotation
				End Site
				{
					OFFSET 0.000000 -8.394100 0.000000
				}
			}
		}
	}
	JOINT RightHip
	{
		OFFSET -1.987999 -0.073502 -2.713001
		CHANNELS 6 Xposition Yposition Zposition Zrotation Xrotation Yrotation
		JOINT RightKnee
		{
			OFFSET 0.000000 -0.000004 -19.547802
			CHANNELS 6 Xposition Yposition Zposition Zrotation Xrotation Yrotation
			JOINT RightAnkle
			{
				OFFSET 0.000000 0.000000 -14.881199
				CHANNELS 6 Xposition Yposition Zposition Zrotation Xrotation Yrotation
				End Site
				{
					OFFSET 0.000000 -7.922699 0.000000
				}
			}
		}
	}
}
MOTION
Frames: 5
Frame Time: 0.041667
75.292801 -31.700294 38.439396 4343.102880 34.442810 19.498428 -0.779995 1.005796 5.403098 -46.462710 -37.862136 -17.072889 0.000004 -0.000002 4.236803 17.088645 0.288595 0.647063 -0.000001 0.000006 9.874402 -59.770576 -12.765755 -6.558153 0.000000 -0.000000 2.173900 -4.976180 -0.811739 -9.283285 2.681599 -0.377596 5.432509 -8.997984 6.456879 -35.686482 5.161503 0.000011 0.000004 81.272721 -120.433447 2.613009 -0.000003 -0.000006 -10.869113 40.564825 -10.680452 20.263179 0.000005 0.000005 -13.344810 11.610983 -11.989274 -23.601270 -2.381899 -1.419599 6.136599 8.236951 9.685107 2.116799 -4.550501 0.000001 0.000007 -1219.110629 -474.709458 -407.872615 -0.000003 -0.000002 -11.106499 679.346898 -24.310885 706.047036 -0.000004 -0.000003 -12.874306 -390.801049 -1.899678 19.523577 2.431906 0.469599 -2.489392 116.404797 -47.181564 66.911149 -0.000002 -0.000003 -18.200199 -130.709658 35.643363 100.348149 -0.000007 0.000000 -16.279902 9.609072 49.967499 46.254830 -1.987998 -0.073497 -2.712993 -54.046040 -37.188884 -61.589380 -0.000000 -0.000001 -19.547800 -1431.639233 63.218243 -358.871745 -0.000003 0.000006 -14.881195 2155.267613 16.817338 -338.854373
75.272301 -31.708998 38.443504 4343.018076 34.537538 19.531841 -0.779995 1.005800 5.403090 -46.445751 -37.876165 -17.250343 0.000001 -0.000003 4.236797 16.997255 0.295781 0.647732 0.000007 0.000004 9.874401 -59.669291 -12.948527 -6.473426 0.000005 0.000005 2.173901 -4.996186 -0.805072 -9.316290 2.681604 -0.377598 5.432508 -9.049168 6.581896 -35.465119 5.161506 0.000003 -0.000001 81.245367 -120.551732 2.421621 -0.000001 -0.000006 -10.869095 40.597726 -10.635008 20.203131 0.000005 -0.000002 -13.344793 11.460400 -11.958288 -23.740484 -2.381894 -1.419602 6.136594 8.006214 9.680707 2.265655 -4.550510 -0.000001 0.000012 -1219.032601 -474.938570 -407.989302 0.000003 -0.000006 -11.106503 679.207180 -24.311452 706.096104 -0.000001 -0.000010 -12.874290 -390.770586 -1.950446 19.643819 2.431898 0.469611 -2.489402 116.417118 -47.269519 66.989676 -0.000002 0.000000 -18.200203 -130.597820 35.696536 100.314319 0.000006 0.000002 -16.279898 9.397983 50.146713 45.890508 -1.988005 -0.073496 -2.713014 -54.156324 -37.147445 -61.764164 0.000001 0.000000 -19.547806 -1431.547107 63.222075 -358.859888 -0.000006 0.000005 -14.881199 2155.243790 16.792370 -338.813829
75.252289 -31.717499 38.447205 4342.936770 34.625139 19.530202 -0.779994 1.005800 5.403101 -46.409964 -37.913376 -17.384722 -0.000002 0.000001 4.236800 16.925735 0.297263 0.647714 -0.000010 0.000003 9.874403 -59.582821 -13.118416 -6.412600 0.000003 0.000009 2.173896 -5.010590 -0.799976 -9.331912 2.681595 -0.377597 5.432502 -8.744367 6.369266 -35.718778 5.161499 0.000006 0.000002 79.563883 -120.146566 1.318764 0.000003 0.000013 -10.869102 40.154887 -10.634220 20.170701 -0.000002 0.000005 -13.344801 11.140721 -11.948514 -23.943083 -2.381901 -1.419598 6.136600 8.089291 9.769698 2.384462 -4.550498 -0.000008 0.000009 -1219.191280 -475.075174 -408.000203 -0.000001 -0.000015 -11.106503 679.018830 -24.262393 706.123698 -0.000007 0.000004 -12.874297 -390.673488 -2.005441 19.721193 2.431906 0.469602 -2.489408 116.376697 -47.349822 67.011198 -0.000004 -0.000009 -18.200195 -130.450930 35.754869 100.262655 -0.000011 0.000000 -16.279896 9.155887 50.369633 45.430826 -1.987997 -0.073498 -2.713003 -54.228294 -37.149071 -61.899190 -0.000005 -0.000007 -19.547804 -1431.465036 63.223291 -358.855352 -0.000004 0.000005 -14.881203 2155.208600 16.767711 -338.774241
75.232803 -31.725996 38.450806 4342.865954 34.690811 19.490315 -0.779996 1.005802 5.403091 -46.344220 -37.962065 -17.445633 0.000006 0.000005 4.236799 16.859391 0.291971 0.644111 0.000003 0.000006 9.874401 -59.502532 -13.264132 -6.396353 0.000010 0.000012 2.173893 -5.026307 -0.810901 -9.341784 2.681593 -0.377594 5.432504 -8.409021 6.104128 -36.038004 5.161507 -0.000000 0.000001 77.914959 -119.717234 0.299800 0.000009 0.000011 -10.869085 39.605532 -10.669485 20.088111 -0.000008 -0.000011 -13.344803 10.991768 -11.999529 -24.087062 -2.381896 -1.419596 6.136598 8.149458 9.863468 2.468331 -4.550508 0.000009 0.000014 -1219.113034 -475.137574 -407.807537 -0.000009 0.000004 -11.106503 678.896488 -24.182874 706.143369 0.000001 0.000001 -12.874290 -390.504427 -2.060758 19.812190 2.431890 0.469611 -2.489414 116.285009 -47.412964 66.964964 -0.000002 -0.000010 -18.200199 -130.286323 35.815699 100.192462 0.000002 -0.000004 -16.279896 8.890251 50.606651 44.961978 -1.988000 -0.073498 -2.713011 -54.258149 -37.178803 -61.979664 -0.000011 0.000003 -19.547802 -1431.387554 63.223585 -358.859368 0.000001 -0.000003 -14.881193 2155.164232 16.744221 -338.732741
75.214203 -31.734299 38.454105 4342.805630 34.736317 19.411688 -0.780000 1.005806 5.403098 -46.250564 -38.020631 -17.443292 0.000014 -0.000005 4.236797 16.804207 0.282870 0.638804 -0.000001 0.000005 9.874405 -59.434073 -13.399479 -6.415481 -0.000000 -0.000001 2.173886 -5.038425 -0.824138 -9.347039 2.681608 -0.377597 5.432498 -5.563410 7.265639 -36.755475 5.161491 0.000003 0.000002 70.663450 -119.966576 -5.861887 -0.000008 0.000010 -10.869094 38.946801 -10.717352 19.955306 -0.000008 0.000002 -13.344790 11.045942 -12.128806 -24.135971 -2.381909 -1.419599 6.136590 8.182635 9.940992 2.525732 -4.550505 0.000001 0.000004 -1218.941132 -475.195877 -407.540422 -0.000000 -0.000002 -11.106491 678.819170 -24.076594 706.178996 0.000003 0.000004 -12.874302 -390.323728 -2.110556 19.897835 2.431892 0.469616 -2.489404 116.141069 -47.459631 66.853980 0.000001 -0.000001 -18.200191 -130.107249 35.878383 100.108676 -0.000004 -0.000001 -16.279888 8.610101 50.824951 44.538041 -1.988001 -0.073490 -2.713010 -54.241534 -37.244509 -62.002518 -0.000006 -0.000005 -19.547806 -1431.330290 63.221098 -358.866199 0.000005 0.000003 -14.881190 2155.106967 16.731126 -338.663483
